<?xml version="1.0" encoding="UTF-8"?>
<svg width="17px" height="17px" viewBox="0 0 17 17" version="1.1" xmlns="http://www.w3.org/2000/svg" xmlns:xlink="http://www.w3.org/1999/xlink">
    <title>by연이</title>
    <g id="Page-1" stroke="none" stroke-width="1" fill="none" fill-rule="evenodd">
        <g id="story" transform="translate(-489.000000, -987.000000)" fill="#7B7B7B" fill-rule="nonzero">
            <path d="M491.224,999.208 C492.44,999.208 493.605333,998.661333 494.72,997.568 C495.834667,996.474667 496.392,995.330667 496.392,994.136 C496.392,993.549333 496.208,993.064 495.84,992.68 C495.472,992.296 495.005333,992.104 494.44,992.104 C493.842667,992.104 493.352,992.28 492.968,992.632 L492.968,992.632 L492.552,993.016 C492.509333,993.048 492.456,993.096 492.392,993.16 C492.573333,992.818667 492.717333,992.52 492.824,992.264 L492.824,992.264 L494.344,988.536 C494.461333,988.248 494.573333,988.024 494.68,987.864 C494.712,987.810667 494.728,987.768 494.728,987.736 C494.728,987.672 494.685333,987.64 494.6,987.64 L494.6,987.64 L494.488,987.64 L494.152,987.672 C494.069949,987.680205 493.757523,987.685254 493.214722,987.687148 L492.861396,987.687905 L492.861396,987.687905 L492.664,987.688 C492.397333,987.688 492.264,987.725333 492.264,987.8 C492.264,987.864 492.306667,987.896 492.392,987.896 C492.978667,987.874667 493.272,987.922667 493.272,988.04 C493.272,988.050667 493.245333,988.096 493.192,988.176 C493.138667,988.256 493.096,988.354667 493.064,988.472 L493.064,988.472 L489.688,996.184 C489.368,996.92 489.208,997.410667 489.208,997.656 C489.208,998.082667 489.402667,998.448 489.792,998.752 C490.181333,999.056 490.658667,999.208 491.224,999.208 Z M491.256,998.968 C490.690667,998.968 490.408,998.754667 490.408,998.328 C490.408,998.018667 490.594667,997.410667 490.968,996.504 L490.968,996.504 L491.352,995.576 C492.226667,993.453333 493.197333,992.392 494.264,992.392 C494.818667,992.392 495.096,992.76 495.096,993.496 C495.096,994.253333 494.76,995.272 494.088,996.552 C493.245333,998.162667 492.301333,998.968 491.256,998.968 Z M495.88,1003.096 C496.338667,1003.096 496.802667,1002.904 497.272,1002.52 C498.072,1001.86933 498.845333,1000.97333 499.592,999.832 C501.032,997.645333 501.784,996.493333 501.848,996.376 L501.848,996.376 L503.496,993.688 C503.848,993.112 504.077333,992.824 504.184,992.824 C504.216,992.824 504.242667,992.845333 504.264,992.888 C504.338667,993.090667 504.461333,993.192 504.632,993.192 C504.994667,993.192 505.176,993.005333 505.176,992.632 C505.176,992.269333 504.989333,992.088 504.616,992.088 C504.370667,992.088 504.170667,992.178667 504.016,992.36 C503.861333,992.541333 503.522667,993.058667 503,993.912 L503,993.912 L501.624,996.184 L501.112,996.968 C500.877333,997.352 500.706667,997.64 500.6,997.832 L500.6,997.832 L500.344,998.216 C500.322667,997.821333 500.312,997.426667 500.312,997.032 L500.312,997.032 L500.36,994.184 L500.36,993.752 C500.36,993.176 500.312,992.765333 500.216,992.52 C500.088,992.2 499.784,992.04 499.304,992.04 C498.653333,992.04 498.088,992.397333 497.608,993.112 C497.288,993.592 497.128,993.938667 497.128,994.152 C497.128,994.248 497.170667,994.296 497.256,994.296 C497.341333,994.296 497.448,994.146667 497.576,993.848 C497.928,993.026667 498.296,992.616 498.68,992.616 C499,992.616 499.16,992.984 499.16,993.72 L499.16,993.72 L499.192,998.328 L499.192,998.712 C499.202667,998.829333 499.208,998.962667 499.208,999.112 C499.208,999.624 498.941333,1000.22667 498.408,1000.92 C498.056,1001.37867 497.68,1001.77867 497.28,1002.12 C496.88,1002.46133 496.584,1002.632 496.392,1002.632 C496.253333,1002.632 496.178667,1002.552 496.168,1002.392 C496.157333,1002.17867 496.133333,1002.05067 496.096,1002.008 C496.058667,1001.96533 495.970667,1001.944 495.832,1001.944 C495.64,1001.944 495.48,1002.00267 495.352,1002.12 C495.224,1002.23733 495.16,1002.38667 495.16,1002.568 C495.16,1002.92 495.4,1003.096 495.88,1003.096 Z" id="by연이"></path>
        </g>
    </g>
</svg>